<svg width="51" height="51" viewBox="0 0 51 51" fill="none" xmlns="http://www.w3.org/2000/svg">
<g filter="url(#filter0_i)">
<mask id="path-1-inside-1" fill="white">
<path d="M49.3218 0.750793C49.2848 0.788055 49.1664 1.02654 49.0702 1.28737C48.8259 1.9581 48.4263 2.51704 47.7675 3.12069C47.4567 3.40389 47.1458 3.69454 47.0792 3.75416C47.0126 3.82123 46.8275 3.97028 46.6647 4.08952C46.5019 4.21621 46.302 4.37271 46.2132 4.44724C46.0356 4.60374 44.5701 5.61729 44.5257 5.61729C44.5109 5.61729 44.2814 5.74398 44.0298 5.90048C43.3415 6.31782 41.7427 7.12269 41.7427 7.05562C41.7427 7.02581 41.7131 7.03326 41.6835 7.07053C41.5577 7.24939 37.5831 8.76225 36.8208 8.9262C36.7246 8.94856 35.4737 9.32119 35.1777 9.41807C35.0444 9.46278 34.8816 9.51495 34.8076 9.52986C34.7336 9.54476 34.2895 9.664 33.8232 9.7907C32.8536 10.059 31.5436 10.4018 30.8626 10.5658C30.8034 10.5807 30.4851 10.6701 30.1595 10.7521C29.8338 10.8415 29.5156 10.9235 29.4563 10.9384C28.6126 11.1545 27.643 11.4079 27.0139 11.5942C26.5846 11.7134 26.2071 11.8252 26.1627 11.8327C25.5262 11.9966 24.5418 12.3096 23.4982 12.6748C23.0911 12.8164 22.7284 12.9357 22.684 12.9506C22.61 12.9655 21.7884 13.2785 21.3518 13.4499C21.2333 13.502 21.1149 13.5468 21.0927 13.5542C21.0113 13.584 20.5894 13.7629 20.1083 13.9716C18.3838 14.7392 15.7267 16.0732 14.8607 16.6246C14.7053 16.7215 14.5646 16.7961 14.5424 16.7961C14.4684 16.7961 13.0029 17.6978 12.0999 18.3089C10.6271 19.2927 9.42802 20.2168 7.96254 21.4911C7.68868 21.7296 6.12698 23.2947 5.7273 23.7343C5.41644 24.0772 4.50606 25.195 4.25441 25.5528C4.173 25.672 4.06938 25.7987 4.03237 25.8434C3.90654 25.9701 2.95916 27.4382 2.95916 27.4979C2.95916 27.5277 2.91475 27.6097 2.85554 27.6693C2.70751 27.8332 1.6417 29.9721 1.51588 30.3596C1.50847 30.382 1.46407 30.4938 1.41226 30.6205C1.1014 31.3583 0.464871 33.5791 0.339046 34.3467C0.324243 34.466 0.279834 34.7194 0.250229 34.9057C0.176214 35.3677 0.168813 35.3901 0.1022 36.0608C0.0207837 36.7912 0.0207837 39.7573 0.1022 40.4205C0.242827 41.6278 0.316842 42.1048 0.487075 42.9544C0.553688 43.2599 0.620301 43.5879 0.635104 43.6773C0.66471 43.8636 0.71652 44.1021 0.783133 44.4225C0.805337 44.5343 0.886753 44.9144 0.968169 45.2647C1.04958 45.6149 1.131 45.9503 1.1458 46.0174C1.16061 46.077 1.21982 46.2559 1.28643 46.4049C1.34564 46.5614 1.40485 46.7105 1.41226 46.7403C1.44186 46.867 1.55288 47.098 1.6565 47.2247C1.87855 47.5079 2.21901 47.1949 2.32263 46.6061C2.38185 46.3006 2.42625 45.205 2.47806 43.2525C2.50767 41.9408 2.52987 41.598 2.62609 41.1658C2.6483 41.0614 2.6853 40.8751 2.70751 40.7559C2.75932 40.4503 2.95176 39.6604 3.01097 39.5262C3.03317 39.4666 3.06278 39.3995 3.07018 39.3772C3.12939 39.2132 3.21081 39.0046 3.29963 38.7959C3.35884 38.6617 3.40325 38.5052 3.40325 38.4456C3.40325 38.386 3.44025 38.3338 3.49206 38.3338C3.53647 38.3338 3.55868 38.3115 3.52907 38.2891C3.46986 38.2295 4.42464 36.4632 4.58748 36.3216C4.60968 36.2993 4.6911 36.18 4.76511 36.0608C5.03897 35.6286 6.13438 34.3393 6.7561 33.7133C7.71829 32.7593 7.88852 32.6028 8.83591 31.8129C9.03575 31.6489 9.23559 31.4775 9.27999 31.4403C9.56125 31.1794 11.7077 29.5399 11.7669 29.5399C11.8113 29.5399 11.8409 29.5175 11.8409 29.4802C11.8409 29.4504 12.0111 29.3163 12.211 29.1747C12.4182 29.0331 12.581 28.8915 12.581 28.8617C12.581 28.8319 12.6403 28.7872 12.7143 28.7648C12.7809 28.735 12.9437 28.6232 13.0769 28.5114C13.2102 28.3996 13.4766 28.191 13.6691 28.0494C13.8615 27.9078 14.0391 27.7736 14.0613 27.7513C14.0835 27.7289 14.2834 27.5724 14.5202 27.3935C14.7497 27.2147 15.0161 26.9986 15.1123 26.9091C15.29 26.7452 15.9635 26.1788 16.2374 25.9627C16.563 25.7018 18.0211 24.189 18.4208 23.6971C18.6576 23.4064 19.1461 22.7134 19.5014 22.1619C20.1601 21.1334 20.6856 20.5223 20.9003 20.5223C21.0409 20.5223 21.1741 20.813 21.1297 21.0291C21.1149 21.1036 21.0853 21.3346 21.0557 21.5433C21.0335 21.7445 20.9151 22.2438 20.7892 22.6537C20.6708 23.0562 20.5598 23.4512 20.5376 23.5331C20.5228 23.6077 20.471 23.7045 20.434 23.7567C20.397 23.8014 20.36 23.861 20.36 23.8983C20.3452 24.0697 19.7901 25.2249 19.4126 25.8732C19.2349 26.1788 19.0943 26.4545 19.0943 26.4918C19.0943 26.529 19.0647 26.5589 19.0277 26.5589C18.9907 26.5589 18.9463 26.6185 18.9167 26.6855C18.8723 26.842 18.7612 27.0135 18.4948 27.3786C18.3912 27.5202 18.2802 27.6916 18.258 27.7513C18.2283 27.8109 17.9249 28.2655 17.5844 28.7573C17.2366 29.2492 16.7851 29.9348 16.5704 30.2851C16.3558 30.6354 16.1559 30.9335 16.1337 30.9558C16.0449 31.0304 15.549 32.0588 15.3196 32.6327C14.8607 33.7803 14.8015 34.779 15.1345 35.7627C15.66 37.3352 16.7407 38.3934 18.1025 38.6692C18.3616 38.7214 19.2868 38.7214 19.5384 38.6692C19.642 38.6468 19.7901 38.617 19.8715 38.6021C20.2489 38.5276 20.693 38.386 20.7818 38.3189C20.8263 38.2742 20.8707 38.2593 20.8707 38.2817C20.8707 38.304 21.1149 38.2071 21.411 38.0581C23.3575 37.1116 25.0155 35.5988 25.9999 33.8996C26.6512 32.7668 26.888 32.4463 27.0953 32.4463C27.1693 32.4463 27.2729 32.5209 27.3173 32.6103C27.3987 32.7668 27.4209 33.8698 27.3469 34.2349C27.3247 34.3393 27.2951 34.5703 27.2729 34.7566C27.2507 34.9429 27.2211 35.1441 27.1989 35.2038C27.1841 35.2634 27.1471 35.4348 27.1249 35.5764C27.0879 35.8298 27.0583 35.9937 26.9695 36.3962C26.9176 36.6719 26.7918 37.2309 26.7548 37.4023C26.7326 37.4842 26.703 37.6184 26.6882 37.7004C26.6734 37.7823 26.5698 38.1848 26.4588 38.5947C26.3551 39.0046 26.2589 39.3697 26.2441 39.4144C26.2367 39.4517 26.1627 39.6753 26.0887 39.8989C26.0073 40.1224 25.9407 40.3236 25.9407 40.346C25.9333 40.3684 25.9036 40.4503 25.8666 40.5323C25.837 40.6143 25.7334 40.8975 25.6298 41.1583C25.3781 41.8216 25.0007 42.6116 24.9045 42.6712C24.8674 42.701 24.86 42.7308 24.8896 42.7308C24.9267 42.7308 24.8822 42.8277 24.8008 42.9469C24.712 43.0662 24.6454 43.1854 24.6454 43.2078C24.6454 43.2748 24.0089 44.2511 23.7276 44.6312C23.0245 45.5628 21.7366 46.9191 20.9743 47.5377C20.7744 47.7016 20.5968 47.8507 20.5746 47.873C20.1749 48.2755 19.2645 48.827 18.4282 49.1772C18.1617 49.289 17.7991 49.453 17.614 49.5424C17.429 49.6393 17.2514 49.7138 17.2217 49.7213C17.1847 49.7213 17.0293 49.8331 16.8739 49.9672C16.674 50.1386 16.6 50.2579 16.6148 50.3845C16.6222 50.4814 16.6444 50.5709 16.6592 50.5932C16.7777 50.7125 17.5918 50.7423 18.5022 50.6603C18.7687 50.6379 19.1165 50.6007 19.2794 50.5932C19.4422 50.5783 19.5754 50.5634 19.5754 50.556C19.5754 50.5485 19.6938 50.5336 19.8345 50.5187C19.9751 50.4963 20.1749 50.4665 20.2785 50.4442C20.3748 50.4293 20.5894 50.392 20.7522 50.3622C20.9151 50.3398 21.1075 50.2877 21.1815 50.2504C21.2555 50.2131 21.3147 50.1908 21.3147 50.2131C21.3147 50.2355 21.4628 50.2057 21.6478 50.1535C21.8328 50.0939 21.9809 50.0641 21.9809 50.0864C21.9809 50.1088 22.0327 50.0864 22.0919 50.0343C22.1511 49.9821 22.2029 49.9598 22.2029 49.9821C22.2029 50.0119 22.3435 49.9747 22.5212 49.915C22.6914 49.848 22.8839 49.7883 22.9431 49.7734C23.0911 49.7436 24.2087 49.3188 24.6084 49.14C25.1043 48.9239 26.3921 48.2978 26.4217 48.2531C26.444 48.2308 26.629 48.1264 26.8288 48.0221C27.0361 47.9178 27.2137 47.8134 27.2211 47.7762C27.2359 47.7464 27.2803 47.724 27.3247 47.724C27.3691 47.724 27.5986 47.5899 27.8354 47.4259C28.0723 47.2619 28.2869 47.1278 28.3091 47.1278C28.3313 47.1278 28.5312 46.9937 28.7532 46.8297C28.9752 46.6657 29.1825 46.5316 29.2269 46.5316C29.2639 46.5316 29.3083 46.5018 29.3231 46.472C29.3379 46.4422 29.6266 46.1962 29.9744 45.9354C30.6702 45.4063 30.648 45.4212 31.5213 44.6685C32.5649 43.7742 33.9194 42.4402 34.7854 41.4639C35.0518 41.1658 35.3035 40.8826 35.3405 40.8379C35.4145 40.7633 36.1473 39.884 36.3027 39.6976C36.4433 39.5188 36.5321 39.407 36.8948 38.93C37.0946 38.6617 37.2871 38.4084 37.3167 38.3711C37.9828 37.529 39.4409 35.323 40.2402 33.9517C41.0026 32.6476 42.1794 30.3 42.6901 29.0554C43.0232 28.2506 43.5635 26.775 43.6301 26.4843C43.6449 26.4247 43.7633 26.067 43.8892 25.7018C44.1852 24.8373 44.2222 24.4572 44.0224 24.2113C43.7855 23.9058 43.5339 24.025 42.6605 24.8224C41.9204 25.5006 40.4327 26.6259 40.0404 26.8048C39.9812 26.8346 39.8332 26.924 39.7073 26.9986C39.3077 27.2594 38.1604 27.8109 37.6719 27.9748C36.1473 28.4965 34.741 28.6381 33.4827 28.3922C33.1793 28.3326 32.4613 28.0419 32.1431 27.8556C31.2845 27.3563 30.5147 26.2384 30.3075 25.2099C30.2927 25.1429 30.2557 24.9566 30.2261 24.8001C30.1965 24.6361 30.1669 24.0921 30.1669 23.5778C30.1669 22.7953 30.1891 22.5569 30.3445 22.0873C30.4407 21.7818 30.5222 21.5135 30.5296 21.4911C30.5666 21.3123 31.2253 20.1497 31.4695 19.8143C32.2689 18.7263 33.6382 17.3326 34.9704 16.2371C35.1703 16.0732 35.4293 15.857 35.5551 15.7527C35.681 15.6484 35.9178 15.4621 36.0806 15.3428C36.2435 15.2236 36.4137 15.0969 36.4507 15.0671C37.1835 14.4858 37.8126 14.0237 39.5519 12.7941C40.0848 12.4214 40.5585 12.0861 40.5955 12.0488C40.6399 12.019 40.8398 11.8699 41.0396 11.7283C41.2468 11.5868 41.4245 11.4452 41.4319 11.4153C41.4467 11.3855 41.4911 11.3557 41.5355 11.3557C41.5799 11.3557 41.7353 11.2514 41.8908 11.1321C42.0462 11.0055 42.1942 10.9086 42.2164 10.9086C42.2534 10.9086 42.3719 10.8191 42.6605 10.5732C42.7123 10.5285 42.8012 10.4614 42.8678 10.4242C43.2082 10.2155 45.2436 8.65791 45.3695 8.52377C45.3917 8.49396 45.4731 8.42688 45.5619 8.36726C46.0356 8.03935 47.8415 6.32528 48.293 5.76633C48.6039 5.38626 49.1294 4.59629 49.3514 4.1864C49.951 3.06852 50.2322 1.38426 49.8991 0.922199C49.7585 0.735889 49.4699 0.646458 49.3218 0.750793Z"/>
</mask>
<path d="M49.3218 0.750793C49.2848 0.788055 49.1664 1.02654 49.0702 1.28737C48.8259 1.9581 48.4263 2.51704 47.7675 3.12069C47.4567 3.40389 47.1458 3.69454 47.0792 3.75416C47.0126 3.82123 46.8275 3.97028 46.6647 4.08952C46.5019 4.21621 46.302 4.37271 46.2132 4.44724C46.0356 4.60374 44.5701 5.61729 44.5257 5.61729C44.5109 5.61729 44.2814 5.74398 44.0298 5.90048C43.3415 6.31782 41.7427 7.12269 41.7427 7.05562C41.7427 7.02581 41.7131 7.03326 41.6835 7.07053C41.5577 7.24939 37.5831 8.76225 36.8208 8.9262C36.7246 8.94856 35.4737 9.32119 35.1777 9.41807C35.0444 9.46278 34.8816 9.51495 34.8076 9.52986C34.7336 9.54476 34.2895 9.664 33.8232 9.7907C32.8536 10.059 31.5436 10.4018 30.8626 10.5658C30.8034 10.5807 30.4851 10.6701 30.1595 10.7521C29.8338 10.8415 29.5156 10.9235 29.4563 10.9384C28.6126 11.1545 27.643 11.4079 27.0139 11.5942C26.5846 11.7134 26.2071 11.8252 26.1627 11.8327C25.5262 11.9966 24.5418 12.3096 23.4982 12.6748C23.0911 12.8164 22.7284 12.9357 22.684 12.9506C22.61 12.9655 21.7884 13.2785 21.3518 13.4499C21.2333 13.502 21.1149 13.5468 21.0927 13.5542C21.0113 13.584 20.5894 13.7629 20.1083 13.9716C18.3838 14.7392 15.7267 16.0732 14.8607 16.6246C14.7053 16.7215 14.5646 16.7961 14.5424 16.7961C14.4684 16.7961 13.0029 17.6978 12.0999 18.3089C10.6271 19.2927 9.42802 20.2168 7.96254 21.4911C7.68868 21.7296 6.12698 23.2947 5.7273 23.7343C5.41644 24.0772 4.50606 25.195 4.25441 25.5528C4.173 25.672 4.06938 25.7987 4.03237 25.8434C3.90654 25.9701 2.95916 27.4382 2.95916 27.4979C2.95916 27.5277 2.91475 27.6097 2.85554 27.6693C2.70751 27.8332 1.6417 29.9721 1.51588 30.3596C1.50847 30.382 1.46407 30.4938 1.41226 30.6205C1.1014 31.3583 0.464871 33.5791 0.339046 34.3467C0.324243 34.466 0.279834 34.7194 0.250229 34.9057C0.176214 35.3677 0.168813 35.3901 0.1022 36.0608C0.0207837 36.7912 0.0207837 39.7573 0.1022 40.4205C0.242827 41.6278 0.316842 42.1048 0.487075 42.9544C0.553688 43.2599 0.620301 43.5879 0.635104 43.6773C0.66471 43.8636 0.71652 44.1021 0.783133 44.4225C0.805337 44.5343 0.886753 44.9144 0.968169 45.2647C1.04958 45.6149 1.131 45.9503 1.1458 46.0174C1.16061 46.077 1.21982 46.2559 1.28643 46.4049C1.34564 46.5614 1.40485 46.7105 1.41226 46.7403C1.44186 46.867 1.55288 47.098 1.6565 47.2247C1.87855 47.5079 2.21901 47.1949 2.32263 46.6061C2.38185 46.3006 2.42625 45.205 2.47806 43.2525C2.50767 41.9408 2.52987 41.598 2.62609 41.1658C2.6483 41.0614 2.6853 40.8751 2.70751 40.7559C2.75932 40.4503 2.95176 39.6604 3.01097 39.5262C3.03317 39.4666 3.06278 39.3995 3.07018 39.3772C3.12939 39.2132 3.21081 39.0046 3.29963 38.7959C3.35884 38.6617 3.40325 38.5052 3.40325 38.4456C3.40325 38.386 3.44025 38.3338 3.49206 38.3338C3.53647 38.3338 3.55868 38.3115 3.52907 38.2891C3.46986 38.2295 4.42464 36.4632 4.58748 36.3216C4.60968 36.2993 4.6911 36.18 4.76511 36.0608C5.03897 35.6286 6.13438 34.3393 6.7561 33.7133C7.71829 32.7593 7.88852 32.6028 8.83591 31.8129C9.03575 31.6489 9.23559 31.4775 9.27999 31.4403C9.56125 31.1794 11.7077 29.5399 11.7669 29.5399C11.8113 29.5399 11.8409 29.5175 11.8409 29.4802C11.8409 29.4504 12.0111 29.3163 12.211 29.1747C12.4182 29.0331 12.581 28.8915 12.581 28.8617C12.581 28.8319 12.6403 28.7872 12.7143 28.7648C12.7809 28.735 12.9437 28.6232 13.0769 28.5114C13.2102 28.3996 13.4766 28.191 13.6691 28.0494C13.8615 27.9078 14.0391 27.7736 14.0613 27.7513C14.0835 27.7289 14.2834 27.5724 14.5202 27.3935C14.7497 27.2147 15.0161 26.9986 15.1123 26.9091C15.29 26.7452 15.9635 26.1788 16.2374 25.9627C16.563 25.7018 18.0211 24.189 18.4208 23.6971C18.6576 23.4064 19.1461 22.7134 19.5014 22.1619C20.1601 21.1334 20.6856 20.5223 20.9003 20.5223C21.0409 20.5223 21.1741 20.813 21.1297 21.0291C21.1149 21.1036 21.0853 21.3346 21.0557 21.5433C21.0335 21.7445 20.9151 22.2438 20.7892 22.6537C20.6708 23.0562 20.5598 23.4512 20.5376 23.5331C20.5228 23.6077 20.471 23.7045 20.434 23.7567C20.397 23.8014 20.36 23.861 20.36 23.8983C20.3452 24.0697 19.7901 25.2249 19.4126 25.8732C19.2349 26.1788 19.0943 26.4545 19.0943 26.4918C19.0943 26.529 19.0647 26.5589 19.0277 26.5589C18.9907 26.5589 18.9463 26.6185 18.9167 26.6855C18.8723 26.842 18.7612 27.0135 18.4948 27.3786C18.3912 27.5202 18.2802 27.6916 18.258 27.7513C18.2283 27.8109 17.9249 28.2655 17.5844 28.7573C17.2366 29.2492 16.7851 29.9348 16.5704 30.2851C16.3558 30.6354 16.1559 30.9335 16.1337 30.9558C16.0449 31.0304 15.549 32.0588 15.3196 32.6327C14.8607 33.7803 14.8015 34.779 15.1345 35.7627C15.66 37.3352 16.7407 38.3934 18.1025 38.6692C18.3616 38.7214 19.2868 38.7214 19.5384 38.6692C19.642 38.6468 19.7901 38.617 19.8715 38.6021C20.2489 38.5276 20.693 38.386 20.7818 38.3189C20.8263 38.2742 20.8707 38.2593 20.8707 38.2817C20.8707 38.304 21.1149 38.2071 21.411 38.0581C23.3575 37.1116 25.0155 35.5988 25.9999 33.8996C26.6512 32.7668 26.888 32.4463 27.0953 32.4463C27.1693 32.4463 27.2729 32.5209 27.3173 32.6103C27.3987 32.7668 27.4209 33.8698 27.3469 34.2349C27.3247 34.3393 27.2951 34.5703 27.2729 34.7566C27.2507 34.9429 27.2211 35.1441 27.1989 35.2038C27.1841 35.2634 27.1471 35.4348 27.1249 35.5764C27.0879 35.8298 27.0583 35.9937 26.9695 36.3962C26.9176 36.6719 26.7918 37.2309 26.7548 37.4023C26.7326 37.4842 26.703 37.6184 26.6882 37.7004C26.6734 37.7823 26.5698 38.1848 26.4588 38.5947C26.3551 39.0046 26.2589 39.3697 26.2441 39.4144C26.2367 39.4517 26.1627 39.6753 26.0887 39.8989C26.0073 40.1224 25.9407 40.3236 25.9407 40.346C25.9333 40.3684 25.9036 40.4503 25.8666 40.5323C25.837 40.6143 25.7334 40.8975 25.6298 41.1583C25.3781 41.8216 25.0007 42.6116 24.9045 42.6712C24.8674 42.701 24.86 42.7308 24.8896 42.7308C24.9267 42.7308 24.8822 42.8277 24.8008 42.9469C24.712 43.0662 24.6454 43.1854 24.6454 43.2078C24.6454 43.2748 24.0089 44.2511 23.7276 44.6312C23.0245 45.5628 21.7366 46.9191 20.9743 47.5377C20.7744 47.7016 20.5968 47.8507 20.5746 47.873C20.1749 48.2755 19.2645 48.827 18.4282 49.1772C18.1617 49.289 17.7991 49.453 17.614 49.5424C17.429 49.6393 17.2514 49.7138 17.2217 49.7213C17.1847 49.7213 17.0293 49.8331 16.8739 49.9672C16.674 50.1386 16.6 50.2579 16.6148 50.3845C16.6222 50.4814 16.6444 50.5709 16.6592 50.5932C16.7777 50.7125 17.5918 50.7423 18.5022 50.6603C18.7687 50.6379 19.1165 50.6007 19.2794 50.5932C19.4422 50.5783 19.5754 50.5634 19.5754 50.556C19.5754 50.5485 19.6938 50.5336 19.8345 50.5187C19.9751 50.4963 20.1749 50.4665 20.2785 50.4442C20.3748 50.4293 20.5894 50.392 20.7522 50.3622C20.9151 50.3398 21.1075 50.2877 21.1815 50.2504C21.2555 50.2131 21.3147 50.1908 21.3147 50.2131C21.3147 50.2355 21.4628 50.2057 21.6478 50.1535C21.8328 50.0939 21.9809 50.0641 21.9809 50.0864C21.9809 50.1088 22.0327 50.0864 22.0919 50.0343C22.1511 49.9821 22.2029 49.9598 22.2029 49.9821C22.2029 50.0119 22.3435 49.9747 22.5212 49.915C22.6914 49.848 22.8839 49.7883 22.9431 49.7734C23.0911 49.7436 24.2087 49.3188 24.6084 49.14C25.1043 48.9239 26.3921 48.2978 26.4217 48.2531C26.444 48.2308 26.629 48.1264 26.8288 48.0221C27.0361 47.9178 27.2137 47.8134 27.2211 47.7762C27.2359 47.7464 27.2803 47.724 27.3247 47.724C27.3691 47.724 27.5986 47.5899 27.8354 47.4259C28.0723 47.2619 28.2869 47.1278 28.3091 47.1278C28.3313 47.1278 28.5312 46.9937 28.7532 46.8297C28.9752 46.6657 29.1825 46.5316 29.2269 46.5316C29.2639 46.5316 29.3083 46.5018 29.3231 46.472C29.3379 46.4422 29.6266 46.1962 29.9744 45.9354C30.6702 45.4063 30.648 45.4212 31.5213 44.6685C32.5649 43.7742 33.9194 42.4402 34.7854 41.4639C35.0518 41.1658 35.3035 40.8826 35.3405 40.8379C35.4145 40.7633 36.1473 39.884 36.3027 39.6976C36.4433 39.5188 36.5321 39.407 36.8948 38.93C37.0946 38.6617 37.2871 38.4084 37.3167 38.3711C37.9828 37.529 39.4409 35.323 40.2402 33.9517C41.0026 32.6476 42.1794 30.3 42.6901 29.0554C43.0232 28.2506 43.5635 26.775 43.6301 26.4843C43.6449 26.4247 43.7633 26.067 43.8892 25.7018C44.1852 24.8373 44.2222 24.4572 44.0224 24.2113C43.7855 23.9058 43.5339 24.025 42.6605 24.8224C41.9204 25.5006 40.4327 26.6259 40.0404 26.8048C39.9812 26.8346 39.8332 26.924 39.7073 26.9986C39.3077 27.2594 38.1604 27.8109 37.6719 27.9748C36.1473 28.4965 34.741 28.6381 33.4827 28.3922C33.1793 28.3326 32.4613 28.0419 32.1431 27.8556C31.2845 27.3563 30.5147 26.2384 30.3075 25.2099C30.2927 25.1429 30.2557 24.9566 30.2261 24.8001C30.1965 24.6361 30.1669 24.0921 30.1669 23.5778C30.1669 22.7953 30.1891 22.5569 30.3445 22.0873C30.4407 21.7818 30.5222 21.5135 30.5296 21.4911C30.5666 21.3123 31.2253 20.1497 31.4695 19.8143C32.2689 18.7263 33.6382 17.3326 34.9704 16.2371C35.1703 16.0732 35.4293 15.857 35.5551 15.7527C35.681 15.6484 35.9178 15.4621 36.0806 15.3428C36.2435 15.2236 36.4137 15.0969 36.4507 15.0671C37.1835 14.4858 37.8126 14.0237 39.5519 12.7941C40.0848 12.4214 40.5585 12.0861 40.5955 12.0488C40.6399 12.019 40.8398 11.8699 41.0396 11.7283C41.2468 11.5868 41.4245 11.4452 41.4319 11.4153C41.4467 11.3855 41.4911 11.3557 41.5355 11.3557C41.5799 11.3557 41.7353 11.2514 41.8908 11.1321C42.0462 11.0055 42.1942 10.9086 42.2164 10.9086C42.2534 10.9086 42.3719 10.8191 42.6605 10.5732C42.7123 10.5285 42.8012 10.4614 42.8678 10.4242C43.2082 10.2155 45.2436 8.65791 45.3695 8.52377C45.3917 8.49396 45.4731 8.42688 45.5619 8.36726C46.0356 8.03935 47.8415 6.32528 48.293 5.76633C48.6039 5.38626 49.1294 4.59629 49.3514 4.1864C49.951 3.06852 50.2322 1.38426 49.8991 0.922199C49.7585 0.735889 49.4699 0.646458 49.3218 0.750793Z" fill="#990000" stroke="black" stroke-width="2" mask="url(#path-1-inside-1)"/>
</g>
<defs>
<filter id="filter0_i" x="0.0411377" y="0.706543" width="54" height="54" filterUnits="userSpaceOnUse" color-interpolation-filters="sRGB">
<feFlood flood-opacity="0" result="BackgroundImageFix"/>
<feBlend mode="normal" in="SourceGraphic" in2="BackgroundImageFix" result="shape"/>
<feColorMatrix in="SourceAlpha" type="matrix" values="0 0 0 0 0 0 0 0 0 0 0 0 0 0 0 0 0 0 127 0" result="hardAlpha"/>
<feOffset dx="4" dy="4"/>
<feGaussianBlur stdDeviation="2"/>
<feComposite in2="hardAlpha" operator="arithmetic" k2="-1" k3="1"/>
<feColorMatrix type="matrix" values="0 0 0 0 1 0 0 0 0 1 0 0 0 0 1 0 0 0 0.25 0"/>
<feBlend mode="normal" in2="shape" result="effect1_innerShadow"/>
</filter>
</defs>
</svg>
