<svg width="50" height="50" viewBox="0 0 50 50" fill="none" xmlns="http://www.w3.org/2000/svg">
<g filter="url(#filter0_i)">
<mask id="path-1-inside-1" fill="white">
<path d="M49.2807 0.0442505C49.2437 0.0815125 49.1253 0.319992 49.029 0.58083C48.7848 1.25156 48.3851 1.8105 47.7264 2.41415C47.4155 2.69735 47.1047 2.988 47.0381 3.04762C46.9714 3.11469 46.7864 3.26374 46.6236 3.38298C46.4607 3.50967 46.2609 3.66617 46.1721 3.7407C45.9944 3.8972 44.529 4.91074 44.4846 4.91074C44.4697 4.91074 44.2403 5.03743 43.9887 5.19394C43.3003 5.61128 41.7016 6.41615 41.7016 6.34908C41.7016 6.31927 41.672 6.32672 41.6424 6.36398C41.5166 6.54284 37.542 8.0557 36.7796 8.21966C36.6834 8.24202 35.4326 8.61464 35.1365 8.71152C35.0033 8.75624 34.8405 8.80841 34.7664 8.82331C34.6924 8.83822 34.2483 8.95746 33.7821 9.08415C32.8125 9.35244 31.5024 9.69526 30.8215 9.85921C30.7623 9.87412 30.444 9.96355 30.1183 10.0455C29.7927 10.135 29.4744 10.2169 29.4152 10.2318C28.5714 10.448 27.6018 10.7013 26.9727 10.8877C26.5434 11.0069 26.166 11.1187 26.1216 11.1261C25.485 11.2901 24.5006 11.6031 23.457 11.9683C23.05 12.1099 22.6873 12.2291 22.6429 12.244C22.5689 12.2589 21.7473 12.5719 21.3106 12.7433C21.1922 12.7955 21.0738 12.8402 21.0516 12.8477C20.9702 12.8775 20.5483 13.0563 20.0672 13.265C18.3426 14.0326 15.6855 15.3666 14.8195 15.9181C14.6641 16.015 14.5235 16.0895 14.5013 16.0895C14.4273 16.0895 12.9618 16.9913 12.0588 17.6024C10.5859 18.5861 9.38689 19.5102 7.9214 20.7846C7.64755 21.0231 6.08584 22.5881 5.68616 23.0278C5.3753 23.3706 4.46492 24.4885 4.21327 24.8462C4.13186 24.9655 4.02824 25.0922 3.99123 25.1369C3.86541 25.2636 2.91802 26.7317 2.91802 26.7913C2.91802 26.8211 2.87361 26.9031 2.8144 26.9627C2.66637 27.1267 1.60056 29.2656 1.47474 29.6531C1.46734 29.6754 1.42293 29.7872 1.37112 29.9139C1.06026 30.6517 0.423733 32.8726 0.297908 33.6402C0.283105 33.7594 0.238697 34.0128 0.209091 34.1991C0.135076 34.6612 0.127675 34.6835 0.0610619 35.3543C-0.020354 36.0846 -0.020354 39.0507 0.0610619 39.714C0.201689 40.9213 0.275704 41.3983 0.445937 42.2478C0.51255 42.5534 0.579163 42.8813 0.593966 42.9707C0.623572 43.1571 0.675382 43.3955 0.741995 43.716C0.764199 43.8278 0.845615 44.2079 0.927031 44.5581C1.00845 44.9084 1.08986 45.2438 1.10467 45.3108C1.11947 45.3704 1.17868 45.5493 1.24529 45.6984C1.30451 45.8549 1.36372 46.0039 1.37112 46.0337C1.40072 46.1604 1.51175 46.3914 1.61537 46.5181C1.83741 46.8013 2.17788 46.4883 2.2815 45.8996C2.34071 45.594 2.38512 44.4985 2.43693 42.5459C2.46653 41.2343 2.48874 40.8915 2.58496 40.4592C2.60716 40.3549 2.64417 40.1686 2.66637 40.0494C2.71818 39.7438 2.91062 38.9538 2.96983 38.8197C2.99204 38.7601 3.02164 38.693 3.02904 38.6706C3.08825 38.5067 3.16967 38.298 3.25849 38.0893C3.3177 37.9552 3.36211 37.7987 3.36211 37.7391C3.36211 37.6795 3.39911 37.6273 3.45093 37.6273C3.49533 37.6273 3.51754 37.6049 3.48793 37.5826C3.42872 37.5229 4.38351 35.7567 4.54634 35.6151C4.56854 35.5927 4.64996 35.4735 4.72397 35.3543C4.99783 34.922 6.09324 33.6327 6.71496 33.0067C7.67715 32.0528 7.84738 31.8963 8.79477 31.1063C8.99461 30.9424 9.19445 30.771 9.23886 30.7337C9.52011 30.4729 11.6665 28.8333 11.7257 28.8333C11.7702 28.8333 11.7998 28.811 11.7998 28.7737C11.7998 28.7439 11.97 28.6097 12.1698 28.4681C12.3771 28.3265 12.5399 28.1849 12.5399 28.1551C12.5399 28.1253 12.5991 28.0806 12.6731 28.0583C12.7397 28.0284 12.9026 27.9167 13.0358 27.8049C13.169 27.6931 13.4355 27.4844 13.6279 27.3428C13.8204 27.2012 13.998 27.0671 14.0202 27.0447C14.0424 27.0224 14.2422 26.8659 14.4791 26.687C14.7085 26.5081 14.975 26.292 15.0712 26.2026C15.2488 26.0386 15.9224 25.4722 16.1962 25.2561C16.5219 24.9953 17.98 23.4824 18.3796 22.9905C18.6165 22.6999 19.105 22.0068 19.4603 21.4553C20.119 20.4269 20.6445 19.8158 20.8591 19.8158C20.9998 19.8158 21.133 20.1064 21.0886 20.3225C21.0738 20.3971 21.0442 20.6281 21.0146 20.8368C20.9924 21.038 20.8739 21.5373 20.7481 21.9472C20.6297 22.3496 20.5187 22.7446 20.4965 22.8266C20.4817 22.9011 20.4298 22.998 20.3928 23.0502C20.3558 23.0949 20.3188 23.1545 20.3188 23.1918C20.304 23.3632 19.7489 24.5183 19.3714 25.1667C19.1938 25.4722 19.0532 25.748 19.0532 25.7852C19.0532 25.8225 19.0236 25.8523 18.9866 25.8523C18.9496 25.8523 18.9051 25.9119 18.8755 25.979C18.8311 26.1355 18.7201 26.3069 18.4537 26.6721C18.35 26.8137 18.239 26.9851 18.2168 27.0447C18.1872 27.1043 17.8837 27.5589 17.5433 28.0508C17.1954 28.5427 16.7439 29.2283 16.5293 29.5786C16.3146 29.9288 16.1148 30.2269 16.0926 30.2493C16.0038 30.3238 15.5079 31.3523 15.2784 31.9261C14.8195 33.0738 14.7603 34.0724 15.0934 35.0562C15.6189 36.6286 16.6995 37.6869 18.0614 37.9626C18.3204 38.0148 19.2456 38.0148 19.4973 37.9626C19.6009 37.9403 19.7489 37.9105 19.8303 37.8956C20.2078 37.821 20.6519 37.6795 20.7407 37.6124C20.7851 37.5677 20.8295 37.5528 20.8295 37.5751C20.8295 37.5975 21.0738 37.5006 21.3698 37.3515C23.3164 36.4051 24.9743 34.8922 25.9587 33.193C26.6101 32.0603 26.8469 31.7398 27.0541 31.7398C27.1282 31.7398 27.2318 31.8143 27.2762 31.9038C27.3576 32.0603 27.3798 33.1632 27.3058 33.5284C27.2836 33.6327 27.254 33.8638 27.2318 34.0501C27.2096 34.2364 27.18 34.4376 27.1578 34.4972C27.143 34.5568 27.106 34.7283 27.0837 34.8699C27.0467 35.1232 27.0171 35.2872 26.9283 35.6896C26.8765 35.9654 26.7507 36.5243 26.7137 36.6957C26.6915 36.7777 26.6619 36.9118 26.6471 36.9938C26.6323 37.0758 26.5286 37.4782 26.4176 37.8881C26.314 38.298 26.2178 38.6632 26.203 38.7079C26.1956 38.7452 26.1216 38.9687 26.0475 39.1923C25.9661 39.4159 25.8995 39.6171 25.8995 39.6395C25.8921 39.6618 25.8625 39.7438 25.8255 39.8258C25.7959 39.9078 25.6923 40.1909 25.5887 40.4518C25.337 41.1151 24.9595 41.905 24.8633 41.9646C24.8263 41.9945 24.8189 42.0243 24.8485 42.0243C24.8855 42.0243 24.8411 42.1212 24.7597 42.2404C24.6709 42.3596 24.6043 42.4789 24.6043 42.5012C24.6043 42.5683 23.9677 43.5446 23.6865 43.9247C22.9833 44.8562 21.6955 46.2126 20.9331 46.8311C20.7333 46.9951 20.5557 47.1441 20.5335 47.1665C20.1338 47.5689 19.2234 48.1204 18.387 48.4707C18.1206 48.5825 17.7579 48.7464 17.5729 48.8359C17.3879 48.9327 17.2102 49.0073 17.1806 49.0147C17.1436 49.0147 16.9882 49.1265 16.8327 49.2607C16.6329 49.4321 16.5589 49.5513 16.5737 49.678C16.5811 49.7749 16.6033 49.8643 16.6181 49.8867C16.7365 50.0059 17.5507 50.0357 18.4611 49.9537C18.7275 49.9314 19.0754 49.8941 19.2382 49.8867C19.401 49.8718 19.5343 49.8569 19.5343 49.8494C19.5343 49.842 19.6527 49.8271 19.7933 49.8121C19.9339 49.7898 20.1338 49.76 20.2374 49.7376C20.3336 49.7227 20.5483 49.6855 20.7111 49.6556C20.8739 49.6333 21.0664 49.5811 21.1404 49.5439C21.2144 49.5066 21.2736 49.4842 21.2736 49.5066C21.2736 49.529 21.4216 49.4991 21.6067 49.447C21.7917 49.3874 21.9397 49.3575 21.9397 49.3799C21.9397 49.4023 21.9916 49.3799 22.0508 49.3277C22.11 49.2756 22.1618 49.2532 22.1618 49.2756C22.1618 49.3054 22.3024 49.2681 22.48 49.2085C22.6503 49.1414 22.8427 49.0818 22.9019 49.0669C23.05 49.0371 24.1676 48.6123 24.5673 48.4334C25.0632 48.2173 26.351 47.5913 26.3806 47.5466C26.4028 47.5242 26.5879 47.4199 26.7877 47.3156C26.9949 47.2112 27.1726 47.1069 27.18 47.0696C27.1948 47.0398 27.2392 47.0175 27.2836 47.0175C27.328 47.0175 27.5574 46.8833 27.7943 46.7194C28.0311 46.5554 28.2458 46.4213 28.268 46.4213C28.2902 46.4213 28.49 46.2871 28.7121 46.1232C28.9341 45.9592 29.1413 45.8251 29.1858 45.8251C29.2228 45.8251 29.2672 45.7952 29.282 45.7654C29.2968 45.7356 29.5854 45.4897 29.9333 45.2288C30.629 44.6997 30.6068 44.7146 31.4802 43.9619C32.5238 43.0676 33.8783 41.7336 34.7442 40.7573C35.0107 40.4592 35.2623 40.176 35.2994 40.1313C35.3734 40.0568 36.1061 39.1774 36.2615 38.9911C36.4022 38.8122 36.491 38.7004 36.8537 38.2235C37.0535 37.9552 37.2459 37.7018 37.2755 37.6645C37.9417 36.8224 39.3998 34.6165 40.1991 33.2452C40.9615 31.941 42.1383 29.5935 42.649 28.3489C42.9821 27.544 43.5224 26.0684 43.589 25.7778C43.6038 25.7182 43.7222 25.3604 43.848 24.9953C44.1441 24.1308 44.1811 23.7507 43.9813 23.5048C43.7444 23.1992 43.4928 23.3185 42.6194 24.1159C41.8792 24.7941 40.3916 25.9194 39.9993 26.0982C39.9401 26.1281 39.792 26.2175 39.6662 26.292C39.2665 26.5528 38.1193 27.1043 37.6308 27.2683C36.1061 27.79 34.6998 27.9316 33.4416 27.6856C33.1381 27.626 32.4202 27.3354 32.1019 27.149C31.2434 26.6497 30.4736 25.5319 30.2664 24.5034C30.2516 24.4363 30.2146 24.25 30.185 24.0935C30.1553 23.9296 30.1257 23.3855 30.1257 22.8713C30.1257 22.0888 30.1479 21.8503 30.3034 21.3808C30.3996 21.0752 30.481 20.807 30.4884 20.7846C30.5254 20.6057 31.1841 19.4431 31.4284 19.1078C32.2278 18.0197 33.597 16.6261 34.9293 15.5306C35.1291 15.3666 35.3882 15.1505 35.514 15.0462C35.6398 14.9418 35.8767 14.7555 36.0395 14.6363C36.2023 14.517 36.3726 14.3903 36.4096 14.3605C37.1423 13.7792 37.7714 13.3172 39.5108 12.0875C40.0437 11.7149 40.5174 11.3795 40.5544 11.3423C40.5988 11.3125 40.7986 11.1634 40.9985 11.0218C41.2057 10.8802 41.3833 10.7386 41.3907 10.7088C41.4055 10.679 41.45 10.6492 41.4944 10.6492C41.5388 10.6492 41.6942 10.5448 41.8496 10.4256C42.0051 10.2989 42.1531 10.202 42.1753 10.202C42.2123 10.202 42.3307 10.1126 42.6194 9.86666C42.6712 9.82195 42.76 9.75488 42.8266 9.71761C43.1671 9.50895 45.2025 7.95137 45.3283 7.81722C45.3505 7.78741 45.4319 7.72034 45.5208 7.66072C45.9944 7.33281 47.8004 5.61873 48.2519 5.05979C48.5627 4.67971 49.0883 3.88975 49.3103 3.47986C49.9098 2.36198 50.1911 0.677715 49.858 0.215656C49.7174 0.0293465 49.4287 -0.0600853 49.2807 0.0442505Z"/>
</mask>
<path d="M49.2807 0.0442505C49.2437 0.0815125 49.1253 0.319992 49.029 0.58083C48.7848 1.25156 48.3851 1.8105 47.7264 2.41415C47.4155 2.69735 47.1047 2.988 47.0381 3.04762C46.9714 3.11469 46.7864 3.26374 46.6236 3.38298C46.4607 3.50967 46.2609 3.66617 46.1721 3.7407C45.9944 3.8972 44.529 4.91074 44.4846 4.91074C44.4697 4.91074 44.2403 5.03743 43.9887 5.19394C43.3003 5.61128 41.7016 6.41615 41.7016 6.34908C41.7016 6.31927 41.672 6.32672 41.6424 6.36398C41.5166 6.54284 37.542 8.0557 36.7796 8.21966C36.6834 8.24202 35.4326 8.61464 35.1365 8.71152C35.0033 8.75624 34.8405 8.80841 34.7664 8.82331C34.6924 8.83822 34.2483 8.95746 33.7821 9.08415C32.8125 9.35244 31.5024 9.69526 30.8215 9.85921C30.7623 9.87412 30.444 9.96355 30.1183 10.0455C29.7927 10.135 29.4744 10.2169 29.4152 10.2318C28.5714 10.448 27.6018 10.7013 26.9727 10.8877C26.5434 11.0069 26.166 11.1187 26.1216 11.1261C25.485 11.2901 24.5006 11.6031 23.457 11.9683C23.05 12.1099 22.6873 12.2291 22.6429 12.244C22.5689 12.2589 21.7473 12.5719 21.3106 12.7433C21.1922 12.7955 21.0738 12.8402 21.0516 12.8477C20.9702 12.8775 20.5483 13.0563 20.0672 13.265C18.3426 14.0326 15.6855 15.3666 14.8195 15.9181C14.6641 16.015 14.5235 16.0895 14.5013 16.0895C14.4273 16.0895 12.9618 16.9913 12.0588 17.6024C10.5859 18.5861 9.38689 19.5102 7.9214 20.7846C7.64755 21.0231 6.08584 22.5881 5.68616 23.0278C5.3753 23.3706 4.46492 24.4885 4.21327 24.8462C4.13186 24.9655 4.02824 25.0922 3.99123 25.1369C3.86541 25.2636 2.91802 26.7317 2.91802 26.7913C2.91802 26.8211 2.87361 26.9031 2.8144 26.9627C2.66637 27.1267 1.60056 29.2656 1.47474 29.6531C1.46734 29.6754 1.42293 29.7872 1.37112 29.9139C1.06026 30.6517 0.423733 32.8726 0.297908 33.6402C0.283105 33.7594 0.238697 34.0128 0.209091 34.1991C0.135076 34.6612 0.127675 34.6835 0.0610619 35.3543C-0.020354 36.0846 -0.020354 39.0507 0.0610619 39.714C0.201689 40.9213 0.275704 41.3983 0.445937 42.2478C0.51255 42.5534 0.579163 42.8813 0.593966 42.9707C0.623572 43.1571 0.675382 43.3955 0.741995 43.716C0.764199 43.8278 0.845615 44.2079 0.927031 44.5581C1.00845 44.9084 1.08986 45.2438 1.10467 45.3108C1.11947 45.3704 1.17868 45.5493 1.24529 45.6984C1.30451 45.8549 1.36372 46.0039 1.37112 46.0337C1.40072 46.1604 1.51175 46.3914 1.61537 46.5181C1.83741 46.8013 2.17788 46.4883 2.2815 45.8996C2.34071 45.594 2.38512 44.4985 2.43693 42.5459C2.46653 41.2343 2.48874 40.8915 2.58496 40.4592C2.60716 40.3549 2.64417 40.1686 2.66637 40.0494C2.71818 39.7438 2.91062 38.9538 2.96983 38.8197C2.99204 38.7601 3.02164 38.693 3.02904 38.6706C3.08825 38.5067 3.16967 38.298 3.25849 38.0893C3.3177 37.9552 3.36211 37.7987 3.36211 37.7391C3.36211 37.6795 3.39911 37.6273 3.45093 37.6273C3.49533 37.6273 3.51754 37.6049 3.48793 37.5826C3.42872 37.5229 4.38351 35.7567 4.54634 35.6151C4.56854 35.5927 4.64996 35.4735 4.72397 35.3543C4.99783 34.922 6.09324 33.6327 6.71496 33.0067C7.67715 32.0528 7.84738 31.8963 8.79477 31.1063C8.99461 30.9424 9.19445 30.771 9.23886 30.7337C9.52011 30.4729 11.6665 28.8333 11.7257 28.8333C11.7702 28.8333 11.7998 28.811 11.7998 28.7737C11.7998 28.7439 11.97 28.6097 12.1698 28.4681C12.3771 28.3265 12.5399 28.1849 12.5399 28.1551C12.5399 28.1253 12.5991 28.0806 12.6731 28.0583C12.7397 28.0284 12.9026 27.9167 13.0358 27.8049C13.169 27.6931 13.4355 27.4844 13.6279 27.3428C13.8204 27.2012 13.998 27.0671 14.0202 27.0447C14.0424 27.0224 14.2422 26.8659 14.4791 26.687C14.7085 26.5081 14.975 26.292 15.0712 26.2026C15.2488 26.0386 15.9224 25.4722 16.1962 25.2561C16.5219 24.9953 17.98 23.4824 18.3796 22.9905C18.6165 22.6999 19.105 22.0068 19.4603 21.4553C20.119 20.4269 20.6445 19.8158 20.8591 19.8158C20.9998 19.8158 21.133 20.1064 21.0886 20.3225C21.0738 20.3971 21.0442 20.6281 21.0146 20.8368C20.9924 21.038 20.8739 21.5373 20.7481 21.9472C20.6297 22.3496 20.5187 22.7446 20.4965 22.8266C20.4817 22.9011 20.4298 22.998 20.3928 23.0502C20.3558 23.0949 20.3188 23.1545 20.3188 23.1918C20.304 23.3632 19.7489 24.5183 19.3714 25.1667C19.1938 25.4722 19.0532 25.748 19.0532 25.7852C19.0532 25.8225 19.0236 25.8523 18.9866 25.8523C18.9496 25.8523 18.9051 25.9119 18.8755 25.979C18.8311 26.1355 18.7201 26.3069 18.4537 26.6721C18.35 26.8137 18.239 26.9851 18.2168 27.0447C18.1872 27.1043 17.8837 27.5589 17.5433 28.0508C17.1954 28.5427 16.7439 29.2283 16.5293 29.5786C16.3146 29.9288 16.1148 30.2269 16.0926 30.2493C16.0038 30.3238 15.5079 31.3523 15.2784 31.9261C14.8195 33.0738 14.7603 34.0724 15.0934 35.0562C15.6189 36.6286 16.6995 37.6869 18.0614 37.9626C18.3204 38.0148 19.2456 38.0148 19.4973 37.9626C19.6009 37.9403 19.7489 37.9105 19.8303 37.8956C20.2078 37.821 20.6519 37.6795 20.7407 37.6124C20.7851 37.5677 20.8295 37.5528 20.8295 37.5751C20.8295 37.5975 21.0738 37.5006 21.3698 37.3515C23.3164 36.4051 24.9743 34.8922 25.9587 33.193C26.6101 32.0603 26.8469 31.7398 27.0541 31.7398C27.1282 31.7398 27.2318 31.8143 27.2762 31.9038C27.3576 32.0603 27.3798 33.1632 27.3058 33.5284C27.2836 33.6327 27.254 33.8638 27.2318 34.0501C27.2096 34.2364 27.18 34.4376 27.1578 34.4972C27.143 34.5568 27.106 34.7283 27.0837 34.8699C27.0467 35.1232 27.0171 35.2872 26.9283 35.6896C26.8765 35.9654 26.7507 36.5243 26.7137 36.6957C26.6915 36.7777 26.6619 36.9118 26.6471 36.9938C26.6323 37.0758 26.5286 37.4782 26.4176 37.8881C26.314 38.298 26.2178 38.6632 26.203 38.7079C26.1956 38.7452 26.1216 38.9687 26.0475 39.1923C25.9661 39.4159 25.8995 39.6171 25.8995 39.6395C25.8921 39.6618 25.8625 39.7438 25.8255 39.8258C25.7959 39.9078 25.6923 40.1909 25.5887 40.4518C25.337 41.1151 24.9595 41.905 24.8633 41.9646C24.8263 41.9945 24.8189 42.0243 24.8485 42.0243C24.8855 42.0243 24.8411 42.1212 24.7597 42.2404C24.6709 42.3596 24.6043 42.4789 24.6043 42.5012C24.6043 42.5683 23.9677 43.5446 23.6865 43.9247C22.9833 44.8562 21.6955 46.2126 20.9331 46.8311C20.7333 46.9951 20.5557 47.1441 20.5335 47.1665C20.1338 47.5689 19.2234 48.1204 18.387 48.4707C18.1206 48.5825 17.7579 48.7464 17.5729 48.8359C17.3879 48.9327 17.2102 49.0073 17.1806 49.0147C17.1436 49.0147 16.9882 49.1265 16.8327 49.2607C16.6329 49.4321 16.5589 49.5513 16.5737 49.678C16.5811 49.7749 16.6033 49.8643 16.6181 49.8867C16.7365 50.0059 17.5507 50.0357 18.4611 49.9537C18.7275 49.9314 19.0754 49.8941 19.2382 49.8867C19.401 49.8718 19.5343 49.8569 19.5343 49.8494C19.5343 49.842 19.6527 49.8271 19.7933 49.8121C19.9339 49.7898 20.1338 49.76 20.2374 49.7376C20.3336 49.7227 20.5483 49.6855 20.7111 49.6556C20.8739 49.6333 21.0664 49.5811 21.1404 49.5439C21.2144 49.5066 21.2736 49.4842 21.2736 49.5066C21.2736 49.529 21.4216 49.4991 21.6067 49.447C21.7917 49.3874 21.9397 49.3575 21.9397 49.3799C21.9397 49.4023 21.9916 49.3799 22.0508 49.3277C22.11 49.2756 22.1618 49.2532 22.1618 49.2756C22.1618 49.3054 22.3024 49.2681 22.48 49.2085C22.6503 49.1414 22.8427 49.0818 22.9019 49.0669C23.05 49.0371 24.1676 48.6123 24.5673 48.4334C25.0632 48.2173 26.351 47.5913 26.3806 47.5466C26.4028 47.5242 26.5879 47.4199 26.7877 47.3156C26.9949 47.2112 27.1726 47.1069 27.18 47.0696C27.1948 47.0398 27.2392 47.0175 27.2836 47.0175C27.328 47.0175 27.5574 46.8833 27.7943 46.7194C28.0311 46.5554 28.2458 46.4213 28.268 46.4213C28.2902 46.4213 28.49 46.2871 28.7121 46.1232C28.9341 45.9592 29.1413 45.8251 29.1858 45.8251C29.2228 45.8251 29.2672 45.7952 29.282 45.7654C29.2968 45.7356 29.5854 45.4897 29.9333 45.2288C30.629 44.6997 30.6068 44.7146 31.4802 43.9619C32.5238 43.0676 33.8783 41.7336 34.7442 40.7573C35.0107 40.4592 35.2623 40.176 35.2994 40.1313C35.3734 40.0568 36.1061 39.1774 36.2615 38.9911C36.4022 38.8122 36.491 38.7004 36.8537 38.2235C37.0535 37.9552 37.2459 37.7018 37.2755 37.6645C37.9417 36.8224 39.3998 34.6165 40.1991 33.2452C40.9615 31.941 42.1383 29.5935 42.649 28.3489C42.9821 27.544 43.5224 26.0684 43.589 25.7778C43.6038 25.7182 43.7222 25.3604 43.848 24.9953C44.1441 24.1308 44.1811 23.7507 43.9813 23.5048C43.7444 23.1992 43.4928 23.3185 42.6194 24.1159C41.8792 24.7941 40.3916 25.9194 39.9993 26.0982C39.9401 26.1281 39.792 26.2175 39.6662 26.292C39.2665 26.5528 38.1193 27.1043 37.6308 27.2683C36.1061 27.79 34.6998 27.9316 33.4416 27.6856C33.1381 27.626 32.4202 27.3354 32.1019 27.149C31.2434 26.6497 30.4736 25.5319 30.2664 24.5034C30.2516 24.4363 30.2146 24.25 30.185 24.0935C30.1553 23.9296 30.1257 23.3855 30.1257 22.8713C30.1257 22.0888 30.1479 21.8503 30.3034 21.3808C30.3996 21.0752 30.481 20.807 30.4884 20.7846C30.5254 20.6057 31.1841 19.4431 31.4284 19.1078C32.2278 18.0197 33.597 16.6261 34.9293 15.5306C35.1291 15.3666 35.3882 15.1505 35.514 15.0462C35.6398 14.9418 35.8767 14.7555 36.0395 14.6363C36.2023 14.517 36.3726 14.3903 36.4096 14.3605C37.1423 13.7792 37.7714 13.3172 39.5108 12.0875C40.0437 11.7149 40.5174 11.3795 40.5544 11.3423C40.5988 11.3125 40.7986 11.1634 40.9985 11.0218C41.2057 10.8802 41.3833 10.7386 41.3907 10.7088C41.4055 10.679 41.45 10.6492 41.4944 10.6492C41.5388 10.6492 41.6942 10.5448 41.8496 10.4256C42.0051 10.2989 42.1531 10.202 42.1753 10.202C42.2123 10.202 42.3307 10.1126 42.6194 9.86666C42.6712 9.82195 42.76 9.75488 42.8266 9.71761C43.1671 9.50895 45.2025 7.95137 45.3283 7.81722C45.3505 7.78741 45.4319 7.72034 45.5208 7.66072C45.9944 7.33281 47.8004 5.61873 48.2519 5.05979C48.5627 4.67971 49.0883 3.88975 49.3103 3.47986C49.9098 2.36198 50.1911 0.677715 49.858 0.215656C49.7174 0.0293465 49.4287 -0.0600853 49.2807 0.0442505Z" fill="#996633" stroke="black" stroke-width="2" mask="url(#path-1-inside-1)"/>
</g>
<defs>
<filter id="filter0_i" x="0" y="0" width="54" height="54" filterUnits="userSpaceOnUse" color-interpolation-filters="sRGB">
<feFlood flood-opacity="0" result="BackgroundImageFix"/>
<feBlend mode="normal" in="SourceGraphic" in2="BackgroundImageFix" result="shape"/>
<feColorMatrix in="SourceAlpha" type="matrix" values="0 0 0 0 0 0 0 0 0 0 0 0 0 0 0 0 0 0 127 0" result="hardAlpha"/>
<feOffset dx="4" dy="4"/>
<feGaussianBlur stdDeviation="2"/>
<feComposite in2="hardAlpha" operator="arithmetic" k2="-1" k3="1"/>
<feColorMatrix type="matrix" values="0 0 0 0 1 0 0 0 0 1 0 0 0 0 1 0 0 0 0.25 0"/>
<feBlend mode="normal" in2="shape" result="effect1_innerShadow"/>
</filter>
</defs>
</svg>
